# xmcd
#
# Track frame offsets:
#	150
#	15977
#	27182
#	42830
#	59557
#	72450
#	89767
#	107537
#	122255
#	138992
#	153380
#	169627
#
# Disc length: 2415 seconds
#
# Revision: 1
# Processed by: cddbd v1.5.1PL0 Copyright (c) Steve Scherf et al.
# Submitted via: audiograbber 1.81.01
#
DISCID=96096d0c
DTITLE=Morten Skov - I Wanna Rock You
DYEAR=1900
DGENRE=
TTITLE0=I Wanna Rock You
TTITLE1=Freedom
TTITLE2=Bandits on The Sun
TTITLE3=Big Bang
TTITLE4=Mercy
TTITLE5=Rock 'n Roll Band
TTITLE6=If You Knew
TTITLE7=Wild Horses
TTITLE8=Be My Baby
TTITLE9=Sweetheart
TTITLE10=Hello Hello
TTITLE11=Smooth
EXTD=
EXTT0=
EXTT1=
EXTT2=
EXTT3=
EXTT4=
EXTT5=
EXTT6=
EXTT7=
EXTT8=
EXTT9=
EXTT10=
EXTT11=
PLAYORDER=
